<svg xmlns="http://www.w3.org/2000/svg" viewBox="0 0 32 32"><defs><style>.cls-1{fill:#00a86b;}</style></defs><g id="teacher_bag" data-name="teacher bag"><path class="cls-1" d="M29,17a1,1,0,0,0,1-1V8a1,1,0,0,0-1-1H22V6.12A3.12,3.12,0,0,0,18.88,3H13.12A3.12,3.12,0,0,0,10,6.12V7H9A1,1,0,0,0,9,9H27.91A6,6,0,0,1,22,14H18.75a1.91,1.91,0,0,0-1.67-1H14.92a1.91,1.91,0,0,0-1.67,1H10A6,6,0,0,1,4.09,9H5A1,1,0,0,0,5,7H3A1,1,0,0,0,2,8V21.2A6.81,6.81,0,0,0,8.8,28H23.2A6.81,6.81,0,0,0,30,21.2V20a1,1,0,0,0-2,0v1.2A4.8,4.8,0,0,1,23.2,26H8.8A4.8,4.8,0,0,1,4,21.2V13.27A8,8,0,0,0,10,16h3v2.08A1.92,1.92,0,0,0,14.92,20h2.16A1.92,1.92,0,0,0,19,18.08V16h3a8,8,0,0,0,6-2.73V16A1,1,0,0,0,29,17ZM17,18H15V15h2ZM12,7V6.12A1.12,1.12,0,0,1,13.12,5h5.76A1.12,1.12,0,0,1,20,6.12V7Z"/><path class="cls-1" d="M22,12a1,1,0,0,0,0-2H10a1,1,0,0,0,0,2Z"/></g></svg>